<svg version="1.1" id="Layer_1" xmlns="http://www.w3.org/2000/svg" xmlns:xlink="http://www.w3.org/1999/xlink" x="0px" y="0px"
	 width="100%" viewBox="0 0 512 269" enable-background="new 0 0 512 269" xml:space="preserve">
<path fill="#000000" opacity="1.000000" stroke="none" 
	d="
M335.000000,270.000000 
	C223.333328,270.000000 112.166664,270.000000 1.000000,270.000000 
	C1.000000,180.333328 1.000000,90.666664 1.000000,1.000000 
	C171.666672,1.000000 342.333344,1.000000 513.000000,1.000000 
	C513.000000,90.666664 513.000000,180.333328 513.000000,270.000000 
	C453.833344,270.000000 394.666656,270.000000 335.000000,270.000000 
M327.500000,171.004150 
	C358.928955,171.004150 390.357941,171.004150 421.715851,171.004150 
	C421.715851,149.022873 421.715851,127.616875 421.715851,106.282928 
	C309.690186,106.282928 197.953049,106.282928 86.284203,106.282928 
	C86.284203,127.977249 86.284203,149.383255 86.284203,171.004150 
	C166.548248,171.004150 246.524124,171.004150 327.500000,171.004150 
z"/>
<path fill="#FDFDFD" opacity="1.000000" stroke="none" 
	d="
M327.000000,171.004150 
	C246.524124,171.004150 166.548248,171.004150 86.284203,171.004150 
	C86.284203,149.383255 86.284203,127.977249 86.284203,106.282928 
	C197.953049,106.282928 309.690186,106.282928 421.715851,106.282928 
	C421.715851,127.616875 421.715851,149.022873 421.715851,171.004150 
	C390.357941,171.004150 358.928955,171.004150 327.000000,171.004150 
M334.508575,156.367035 
	C354.263458,156.367035 374.018341,156.367035 394.281982,156.367035 
	C393.063904,143.134140 386.270416,134.283096 376.083801,127.738228 
	C378.247437,123.765572 380.234833,120.116501 382.222229,116.467438 
	C381.678772,116.128059 381.135284,115.788681 380.591797,115.449303 
	C378.204254,119.145935 375.816742,122.842567 373.400208,126.584076 
	C363.036682,122.363991 352.810394,122.678253 342.454254,126.482811 
	C341.100464,124.235596 339.964966,122.223007 338.702209,120.293732 
	C337.631409,118.657707 336.413544,117.117950 335.260742,115.535606 
	C334.777222,115.894150 334.293701,116.252701 333.810181,116.611244 
	C335.853363,120.296875 337.896545,123.982506 339.990692,127.760048 
	C329.574890,134.603439 322.796417,143.341064 321.913391,156.367401 
	C326.229950,156.367401 329.871857,156.367401 334.508575,156.367035 
M281.881775,136.797577 
	C279.602631,144.321075 281.119476,150.615723 286.113800,154.359894 
	C290.964966,157.996719 295.483978,157.885666 300.650848,154.626968 
	C303.656891,155.384460 305.852875,155.937836 308.224091,156.535355 
	C308.224091,142.375351 308.224091,129.268707 308.224091,115.938980 
	C306.329712,115.938980 304.596252,115.938980 302.338867,115.938980 
	C302.338867,121.385910 302.338867,126.567047 302.338867,132.075180 
	C294.105286,126.514343 287.620819,127.938622 281.881775,136.797577 
M186.766098,151.577759 
	C192.768417,158.143265 197.679535,158.701218 204.351089,154.445511 
	C207.253937,155.386505 209.317062,156.055298 211.663208,156.815826 
	C211.663208,142.606262 211.663208,129.254440 211.663208,115.934677 
	C209.618011,115.934677 207.874405,115.934677 205.914124,115.934677 
	C205.914124,118.862892 205.914108,121.506500 205.914108,124.150101 
	C205.914108,126.692528 205.914124,129.234955 205.914124,132.126389 
	C195.755585,124.858742 185.916367,130.539215 184.425766,139.552658 
	C183.827652,143.169357 185.583145,147.175262 186.766098,151.577759 
M121.150116,136.074295 
	C118.767082,142.471420 119.053017,148.501968 124.154442,153.511185 
	C128.698685,157.973297 133.384689,157.972855 139.857666,154.743271 
	C143.072128,155.532135 145.031723,156.013046 147.228760,156.552231 
	C147.228760,146.823898 147.228760,138.067444 147.228760,128.337860 
	C144.716019,129.234497 142.723373,129.945541 139.844162,130.972961 
	C132.949310,126.706169 127.021271,127.815170 121.150116,136.074295 
M242.851044,154.879318 
	C250.418472,158.269806 257.412720,157.078140 261.705139,151.666962 
	C265.651001,146.692703 265.801666,139.700226 262.115204,134.582901 
	C258.371552,129.386124 253.080170,127.887016 247.190460,129.057953 
	C241.793030,130.131012 238.172546,133.654526 236.745560,139.139755 
	C235.094788,145.485214 237.220139,150.484848 242.851044,154.879318 
M157.533432,129.026611 
	C156.489990,129.677185 154.555710,130.305283 154.538666,130.981720 
	C154.330246,139.248077 154.403122,147.521515 154.403122,155.959808 
	C156.758591,155.959808 158.458420,155.959808 159.946564,155.959808 
	C160.270248,150.308411 160.293610,144.980850 160.968109,139.737030 
	C161.474808,135.797668 164.229828,133.480484 168.317932,134.103546 
	C172.072556,134.675751 173.082230,137.641678 173.044266,141.116898 
	C172.990662,146.024567 173.030701,150.933258 173.030701,155.974121 
	C175.532654,155.974121 177.246979,155.974121 179.018127,155.974121 
	C179.018127,149.997681 179.149536,144.339081 178.983078,138.689285 
	C178.797485,132.389847 174.606262,128.420074 168.354904,128.883484 
	C165.731644,129.077942 163.188828,130.357574 160.808701,131.083115 
	C160.077408,130.451080 159.253616,129.739120 157.533432,129.026611 
M234.138916,130.676727 
	C230.647354,126.017433 228.172897,131.162689 225.548706,130.409576 
	C223.497864,129.828415 221.447021,129.247253 219.022827,128.560287 
	C219.022827,138.237625 219.022827,146.984344 219.022827,156.012100 
	C220.987381,156.012100 222.722092,156.012100 224.754257,156.012100 
	C224.754257,152.107513 224.733231,148.482224 224.758591,144.857285 
	C224.814087,136.922394 226.090744,135.483719 234.142044,134.453323 
	C234.142044,133.512619 234.142044,132.538162 234.138916,130.676727 
M269.773163,135.565964 
	C269.773163,142.335358 269.773163,149.104736 269.773163,155.962097 
	C272.138733,155.962097 273.869019,155.962097 275.462402,155.962097 
	C275.462402,146.827164 275.462402,138.055725 275.462402,129.324860 
	C273.425629,129.324860 271.703003,129.324860 269.777679,129.324860 
	C269.777679,131.284424 269.777679,132.937378 269.773163,135.565964 
M268.888184,118.013268 
	C269.825165,119.681503 270.460724,121.718941 271.840240,122.845131 
	C272.432617,123.328766 275.173004,122.304962 275.837524,121.263908 
	C276.516846,120.199699 276.441620,117.800331 275.655823,116.818703 
	C273.522858,114.154320 271.100372,114.844475 268.888184,118.013268 
z"/>
<path fill="#3DDB85" opacity="1.000000" stroke="none" 
	d="
M334.011169,156.367218 
	C329.871857,156.367401 326.229950,156.367401 321.913391,156.367401 
	C322.796417,143.341064 329.574890,134.603439 339.990692,127.760048 
	C337.896545,123.982506 335.853363,120.296875 333.810181,116.611244 
	C334.293701,116.252701 334.777222,115.894150 335.260742,115.535606 
	C336.413544,117.117950 337.631409,118.657707 338.702209,120.293732 
	C339.964966,122.223007 341.100464,124.235596 342.454254,126.482811 
	C352.810394,122.678253 363.036682,122.363991 373.400208,126.584076 
	C375.816742,122.842567 378.204254,119.145935 380.591797,115.449303 
	C381.135284,115.788681 381.678772,116.128059 382.222229,116.467438 
	C380.234833,120.116501 378.247437,123.765572 376.083801,127.738228 
	C386.270416,134.283096 393.063904,143.134140 394.281982,156.367035 
	C374.018341,156.367035 354.263458,156.367035 334.011169,156.367218 
M371.897339,142.660263 
	C372.834503,143.773743 373.597626,145.225540 374.791595,145.839767 
	C375.292664,146.097549 377.108673,144.774689 377.570740,143.808701 
	C377.909760,143.100006 376.998627,140.911713 376.676605,140.918411 
	C375.143097,140.950317 373.620514,141.507690 371.897339,142.660263 
M343.587616,144.935638 
	C344.737640,142.493500 344.268372,140.451096 341.427368,140.272003 
	C340.422607,140.208679 338.351440,142.219070 338.393585,143.213760 
	C338.513428,146.041565 340.536774,146.578491 343.587616,144.935638 
z"/>
<path fill="#060606" opacity="1.000000" stroke="none" 
	d="
M282.009399,136.420181 
	C287.620819,127.938622 294.105286,126.514343 302.338867,132.075180 
	C302.338867,126.567047 302.338867,121.385910 302.338867,115.938980 
	C304.596252,115.938980 306.329712,115.938980 308.224091,115.938980 
	C308.224091,129.268707 308.224091,142.375351 308.224091,156.535355 
	C305.852875,155.937836 303.656891,155.384460 300.650848,154.626968 
	C295.483978,157.885666 290.964966,157.996719 286.113800,154.359894 
	C281.119476,150.615723 279.602631,144.321075 282.009399,136.420181 
M302.885223,140.979004 
	C301.620636,136.539398 298.951172,133.058914 294.131836,134.246292 
	C291.462006,134.904053 288.033691,137.716110 287.433472,140.166199 
	C286.742340,142.987335 288.138855,146.903976 289.850464,149.556427 
	C291.392944,151.946747 294.464142,152.752869 297.750244,151.058960 
	C301.709045,149.018341 303.109924,145.932373 302.885223,140.979004 
z"/>
<path fill="#070707" opacity="1.000000" stroke="none" 
	d="
M186.516754,151.290894 
	C185.583145,147.175262 183.827652,143.169357 184.425766,139.552658 
	C185.916367,130.539215 195.755585,124.858742 205.914124,132.126389 
	C205.914124,129.234955 205.914108,126.692528 205.914108,124.150101 
	C205.914108,121.506500 205.914124,118.862892 205.914124,115.934677 
	C207.874405,115.934677 209.618011,115.934677 211.663208,115.934677 
	C211.663208,129.254440 211.663208,142.606262 211.663208,156.815826 
	C209.317062,156.055298 207.253937,155.386505 204.351089,154.445511 
	C197.679535,158.701218 192.768417,158.143265 186.516754,151.290894 
M191.879227,148.445877 
	C194.323212,149.621719 196.788986,151.809891 199.206543,151.757858 
	C203.909332,151.656662 206.948181,146.220016 206.067825,140.921555 
	C205.312759,136.377213 201.713623,133.525116 197.342026,134.006851 
	C192.593262,134.530151 189.368942,138.942291 190.093903,144.121033 
	C190.273239,145.402100 190.919052,146.617874 191.879227,148.445877 
z"/>
<path fill="#060606" opacity="1.000000" stroke="none" 
	d="
M121.359596,135.741791 
	C127.021271,127.815170 132.949310,126.706169 139.844162,130.972961 
	C142.723373,129.945541 144.716019,129.234497 147.228760,128.337860 
	C147.228760,138.067444 147.228760,146.823898 147.228760,156.552231 
	C145.031723,156.013046 143.072128,155.532135 139.857666,154.743271 
	C133.384689,157.972855 128.698685,157.973297 124.154442,153.511185 
	C119.053017,148.501968 118.767082,142.471420 121.359596,135.741791 
M135.995300,134.017136 
	C134.838501,134.013321 133.636108,133.801636 132.533203,134.043518 
	C128.794281,134.863525 126.469269,137.203110 125.975227,141.043884 
	C125.399887,145.516647 126.622581,149.023788 131.108749,151.141724 
	C134.861099,152.913223 137.507919,151.124481 139.790421,148.823471 
	C143.927856,144.652512 142.509979,138.398987 135.995300,134.017136 
z"/>
<path fill="#090909" opacity="1.000000" stroke="none" 
	d="
M242.541656,154.662567 
	C237.220139,150.484848 235.094788,145.485214 236.745560,139.139755 
	C238.172546,133.654526 241.793030,130.131012 247.190460,129.057953 
	C253.080170,127.887016 258.371552,129.386124 262.115204,134.582901 
	C265.801666,139.700226 265.651001,146.692703 261.705139,151.666962 
	C257.412720,157.078140 250.418472,158.269806 242.541656,154.662567 
M242.267456,141.013153 
	C242.097473,147.860031 245.906174,152.207794 251.272202,151.292374 
	C255.944122,150.495361 258.741913,147.358353 258.783112,142.870712 
	C258.818848,138.979630 255.622940,134.553223 251.998734,134.070480 
	C247.214554,133.433228 244.120636,135.816589 242.267456,141.013153 
z"/>
<path fill="#0D0D0D" opacity="1.000000" stroke="none" 
	d="
M157.981628,129.026886 
	C159.253616,129.739120 160.077408,130.451080 160.808701,131.083115 
	C163.188828,130.357574 165.731644,129.077942 168.354904,128.883484 
	C174.606262,128.420074 178.797485,132.389847 178.983078,138.689285 
	C179.149536,144.339081 179.018127,149.997681 179.018127,155.974121 
	C177.246979,155.974121 175.532654,155.974121 173.030701,155.974121 
	C173.030701,150.933258 172.990662,146.024567 173.044266,141.116898 
	C173.082230,137.641678 172.072556,134.675751 168.317932,134.103546 
	C164.229828,133.480484 161.474808,135.797668 160.968109,139.737030 
	C160.293610,144.980850 160.270248,150.308411 159.946564,155.959808 
	C158.458420,155.959808 156.758591,155.959808 154.403122,155.959808 
	C154.403122,147.521515 154.330246,139.248077 154.538666,130.981720 
	C154.555710,130.305283 156.489990,129.677185 157.981628,129.026886 
z"/>
<path fill="#0A0A0A" opacity="1.000000" stroke="none" 
	d="
M234.140472,131.120224 
	C234.142044,132.538162 234.142044,133.512619 234.142044,134.453323 
	C226.090744,135.483719 224.814087,136.922394 224.758591,144.857285 
	C224.733231,148.482224 224.754257,152.107513 224.754257,156.012100 
	C222.722092,156.012100 220.987381,156.012100 219.022827,156.012100 
	C219.022827,146.984344 219.022827,138.237625 219.022827,128.560287 
	C221.447021,129.247253 223.497864,129.828415 225.548706,130.409576 
	C228.172897,131.162689 230.647354,126.017433 234.140472,131.120224 
z"/>
<path fill="#111111" opacity="1.000000" stroke="none" 
	d="
M269.775421,135.078156 
	C269.777679,132.937378 269.777679,131.284424 269.777679,129.324860 
	C271.703003,129.324860 273.425629,129.324860 275.462402,129.324860 
	C275.462402,138.055725 275.462402,146.827164 275.462402,155.962097 
	C273.869019,155.962097 272.138733,155.962097 269.773163,155.962097 
	C269.773163,149.104736 269.773163,142.335358 269.775421,135.078156 
z"/>
<path fill="#111111" opacity="1.000000" stroke="none" 
	d="
M268.980774,117.671143 
	C271.100372,114.844475 273.522858,114.154320 275.655823,116.818703 
	C276.441620,117.800331 276.516846,120.199699 275.837524,121.263908 
	C275.173004,122.304962 272.432617,123.328766 271.840240,122.845131 
	C270.460724,121.718941 269.825165,119.681503 268.980774,117.671143 
z"/>
<path fill="#F0FCF4" opacity="1.000000" stroke="none" 
	d="
M371.995667,142.269165 
	C373.620514,141.507690 375.143097,140.950317 376.676605,140.918411 
	C376.998627,140.911713 377.909760,143.100006 377.570740,143.808701 
	C377.108673,144.774689 375.292664,146.097549 374.791595,145.839767 
	C373.597626,145.225540 372.834503,143.773743 371.995667,142.269165 
z"/>
<path fill="#F0FCF4" opacity="1.000000" stroke="none" 
	d="
M343.297302,145.209900 
	C340.536774,146.578491 338.513428,146.041565 338.393585,143.213760 
	C338.351440,142.219070 340.422607,140.208679 341.427368,140.272003 
	C344.268372,140.451096 344.737640,142.493500 343.297302,145.209900 
z"/>
<path fill="#FAFAFA" opacity="1.000000" stroke="none" 
	d="
M302.917664,141.379257 
	C303.109924,145.932373 301.709045,149.018341 297.750244,151.058960 
	C294.464142,152.752869 291.392944,151.946747 289.850464,149.556427 
	C288.138855,146.903976 286.742340,142.987335 287.433472,140.166199 
	C288.033691,137.716110 291.462006,134.904053 294.131836,134.246292 
	C298.951172,133.058914 301.620636,136.539398 302.917664,141.379257 
z"/>
<path fill="#FAFAFA" opacity="1.000000" stroke="none" 
	d="
M191.614822,148.154755 
	C190.919052,146.617874 190.273239,145.402100 190.093903,144.121033 
	C189.368942,138.942291 192.593262,134.530151 197.342026,134.006851 
	C201.713623,133.525116 205.312759,136.377213 206.067825,140.921555 
	C206.948181,146.220016 203.909332,151.656662 199.206543,151.757858 
	C196.788986,151.809891 194.323212,149.621719 191.614822,148.154755 
z"/>
<path fill="#FBFBFB" opacity="1.000000" stroke="none" 
	d="
M136.384094,134.123016 
	C142.509979,138.398987 143.927856,144.652512 139.790421,148.823471 
	C137.507919,151.124481 134.861099,152.913223 131.108749,151.141724 
	C126.622581,149.023788 125.399887,145.516647 125.975227,141.043884 
	C126.469269,137.203110 128.794281,134.863525 132.533203,134.043518 
	C133.636108,133.801636 134.838501,134.013321 136.384094,134.123016 
z"/>
<path fill="#F9F9F9" opacity="1.000000" stroke="none" 
	d="
M242.391968,140.640015 
	C244.120636,135.816589 247.214554,133.433228 251.998734,134.070480 
	C255.622940,134.553223 258.818848,138.979630 258.783112,142.870712 
	C258.741913,147.358353 255.944122,150.495361 251.272202,151.292374 
	C245.906174,152.207794 242.097473,147.860031 242.391968,140.640015 
z"/>
</svg>